# xmcd CD database file
#
# Track frame offsets:
#	150
#	6831
#	18456
#	35072
#	54499
#	71105
#	84469
#	104304
#	118865
#	139542
#	152006
#	168853
#	180845
#	206831
#
# Disc length: 2862 seconds
#
# Revision: 0
# Processed by: cddbd v1.5.2PL0 Copyright (c) Steve Scherf et al.
# Submitted via: CDex 1.51
#
DISCID=b60b2c0e
DTITLE=Eduardo Kusdra - O Cantar dos Passaros ao Som da Viola II
DYEAR=1900
DGENRE=Country
TTITLE0=Natureza
TTITLE1=Viola caipira
TTITLE2=Encantos do sertao
TTITLE3=Passeando pelo pantanal
TTITLE4=Eta...canarinho cantador
TTITLE5=Valsinha dos passarinhos
TTITLE6=Sentimento sertanejo
TTITLE7=Nascido no interior (Caboclo de Sorte)
TTITLE8=Passarinho cantou, tudo e alegria
TTITLE9=Viola timbrada, cantou passarada
TTITLE10=Fazenda da alegria
TTITLE11=Preludio dos passarinhos
TTITLE12=Amanhecer na roca
TTITLE13=Renascendo ave em liberdade
EXTD=
EXTT0=
EXTT1=
EXTT2=
EXTT3=
EXTT4=
EXTT5=
EXTT6=
EXTT7=
EXTT8=
EXTT9=
EXTT10=
EXTT11=
EXTT12=
EXTT13=
PLAYORDER=
